<svg xmlns="http://www.w3.org/2000/svg" xmlns:xlink="http://www.w3.org/1999/xlink" width="500" zoomAndPan="magnify" viewBox="0 0 375 374.999991" height="500" preserveAspectRatio="xMidYMid meet" version="1.2"><g id="f0fde008a8"><path style=" stroke:none;fill-rule:nonzero;fill:#ff6f00;fill-opacity:1;" d="M 164.046875 122.578125 L 147.664062 122.578125 C 144.75 113.007812 142.238281 99.003906 147.664062 85.082031 C 152.808594 71.886719 161.296875 68.496094 167.277344 56.855469 C 172.132812 47.40625 175.613281 31.984375 167.277344 6.585938 L 185.546875 6.585938 C 194.117188 32.148438 190.675781 47.453125 185.546875 56.855469 C 179.066406 68.746094 169.632812 71.679688 164.042969 85.082031 C 158.414062 98.601562 160.921875 112.628906 164.046875 122.578125 Z M 164.046875 122.578125 "/><path style=" stroke:none;fill-rule:nonzero;fill:#ff6f00;fill-opacity:1;" d="M 196.652344 122.578125 L 180.269531 122.578125 C 177.351562 113.007812 174.839844 99.003906 180.269531 85.082031 C 185.410156 71.886719 193.898438 68.496094 199.886719 56.855469 C 204.742188 47.40625 208.222656 31.984375 199.886719 6.585938 L 218.15625 6.585938 C 226.726562 32.148438 223.285156 47.453125 218.15625 56.855469 C 211.675781 68.746094 202.242188 71.679688 196.652344 85.082031 C 191.019531 98.601562 193.523438 112.628906 196.652344 122.578125 Z M 196.652344 122.578125 "/><path style=" stroke:none;fill-rule:nonzero;fill:#ff6f00;fill-opacity:1;" d="M 250.480469 281.652344 L 250.480469 259.917969 C 270.550781 259.261719 285.558594 243.550781 285.496094 227.078125 C 285.414062 207.023438 263.015625 190.554688 248.4375 195.417969 C 239.679688 198.34375 235.601562 208.355469 234.21875 212.335938 C 234.21875 212.335938 234.21875 264.363281 234.21875 295.714844 C 231.886719 304.082031 221.121094 339.1875 188.980469 353.226562 C 182.5625 356.027344 176.25 357.578125 170.394531 358.332031 L 116.746094 358.332031 L 116.746094 172.007812 L 248.4375 172.007812 C 282.050781 168.785156 310.703125 195.648438 310.511719 227.078125 C 310.339844 257.53125 283.125 283.605469 250.480469 281.652344 Z M 250.480469 281.652344 "/><path style=" stroke:none;fill-rule:nonzero;fill:#ff6f00;fill-opacity:1;" d="M 84.175781 172.058594 C 89.671875 172.058594 94.992188 172.058594 100.460938 172.058594 C 100.460938 234.304688 100.460938 296.363281 100.460938 358.675781 C 94.996094 358.675781 89.707031 358.675781 84.175781 358.675781 C 84.175781 296.53125 84.175781 234.472656 84.175781 172.058594 Z M 84.175781 172.058594 "/><path style=" stroke:none;fill-rule:nonzero;fill:#ff6f00;fill-opacity:1;" d="M 251.03125 138.863281 C 251.070312 139.679688 251.128906 140.382812 251.128906 141.082031 C 251.140625 145.699219 251.132812 150.316406 251.132812 155.148438 C 206.367188 155.148438 161.726562 155.148438 116.699219 155.148438 C 116.699219 149.878906 116.699219 144.535156 116.699219 138.863281 C 161.253906 138.863281 205.980469 138.863281 251.03125 138.863281 Z M 251.03125 138.863281 "/><path style=" stroke:none;fill-rule:nonzero;fill:#ff6f00;fill-opacity:1;" d="M 92.652344 168.140625 C 92.21875 168.140625 91.777344 168.179688 91.34375 168.132812 C 86.257812 167.601562 82.230469 164.53125 79.316406 158.875 C 77.574219 155.492188 76.6875 151.691406 76.628906 147.570312 C 76.535156 141.597656 78.046875 136.445312 81.125 132.160156 C 82.921875 129.664062 85.066406 127.90625 87.519531 126.84375 C 88.3125 126.5 89.046875 126.664062 89.71875 127.363281 C 91.058594 128.773438 91.816406 130.679688 92.238281 132.851562 C 92.925781 136.363281 92.761719 139.871094 92.027344 143.324219 C 91.636719 145.15625 91.070312 146.921875 90.636719 148.746094 C 89.683594 152.734375 89.378906 156.804688 90 160.941406 C 90.398438 163.578125 91.195312 165.96875 92.582031 167.949219 C 92.609375 167.988281 92.632812 168.03125 92.652344 168.074219 C 92.664062 168.089844 92.660156 168.105469 92.652344 168.140625 Z M 92.652344 168.140625 "/><path style=" stroke:none;fill-rule:nonzero;fill:#ff6f00;fill-opacity:1;" d="M 91.863281 125.875 C 92.917969 125.820312 93.921875 125.902344 94.90625 126.15625 C 100.429688 127.585938 104.457031 131.734375 106.65625 138.710938 C 108.902344 145.839844 108.3125 152.773438 105.074219 159.191406 C 103.152344 162.984375 100.503906 165.539062 97.296875 167.078125 C 96.058594 167.671875 95.117188 167.160156 94.269531 165.980469 C 93.070312 164.332031 92.457031 162.300781 92.136719 160.082031 C 91.679688 156.882812 91.875 153.714844 92.550781 150.613281 C 92.945312 148.792969 93.5 147.042969 93.929688 145.230469 C 94.871094 141.269531 95.183594 137.226562 94.5625 133.117188 C 94.160156 130.464844 93.371094 128.058594 91.96875 126.070312 C 91.945312 126.027344 91.925781 125.984375 91.863281 125.875 Z M 91.863281 125.875 "/><path style=" stroke:none;fill-rule:nonzero;fill:#ff6f00;fill-opacity:1;" d="M 17.507812 427.738281 L 17.507812 376.136719 C 17.507812 375.101562 17.996094 374.589844 18.980469 374.589844 L 26.945312 374.589844 C 27.882812 374.589844 28.347656 375.109375 28.347656 376.136719 L 28.347656 427.738281 C 28.347656 428.722656 27.882812 429.210938 26.945312 429.210938 L 18.980469 429.210938 C 17.996094 429.210938 17.507812 428.722656 17.507812 427.738281 Z M 17.507812 427.738281 "/><path style=" stroke:none;fill-rule:nonzero;fill:#ff6f00;fill-opacity:1;" d="M 114.375 416.476562 C 115.359375 415.742188 116.148438 415.742188 116.734375 416.476562 L 120.421875 422.734375 C 120.8125 423.175781 120.960938 423.554688 120.863281 423.875 C 120.765625 424.195312 120.492188 424.527344 120.054688 424.871094 C 117.9375 426.441406 115.578125 427.695312 112.972656 428.625 C 110.363281 429.554688 107.390625 430.019531 104.042969 430.019531 C 100.15625 430.019531 96.492188 429.285156 93.050781 427.8125 C 89.609375 426.339844 86.597656 424.328125 84.011719 421.777344 C 81.429688 419.226562 79.402344 416.230469 77.929688 412.792969 C 76.453125 409.359375 75.714844 405.703125 75.714844 401.828125 C 75.714844 397.902344 76.453125 394.242188 77.929688 390.859375 C 79.402344 387.476562 81.429688 384.503906 84.011719 381.953125 C 86.597656 379.402344 89.609375 377.402344 93.050781 375.957031 C 96.492188 374.507812 100.15625 373.785156 104.042969 373.785156 C 107.390625 373.785156 110.363281 374.242188 112.972656 375.152344 C 115.578125 376.058594 117.964844 377.300781 120.128906 378.871094 C 120.519531 379.210938 120.722656 379.554688 120.722656 379.902344 C 120.722656 380.246094 120.671875 380.519531 120.574219 380.714844 L 116.664062 387.335938 C 116.226562 387.921875 115.535156 387.949219 114.597656 387.414062 C 112.875 386.335938 111.195312 385.5 109.546875 384.910156 C 107.898438 384.324219 106.066406 384.03125 104.050781 384.03125 C 101.542969 384.03125 99.226562 384.488281 97.117188 385.390625 C 95.003906 386.296875 93.167969 387.558594 91.621094 389.179688 C 90.070312 390.800781 88.851562 392.6875 87.964844 394.84375 C 87.078125 397.003906 86.640625 399.335938 86.640625 401.839844 C 86.640625 404.339844 87.078125 406.683594 87.964844 408.867188 C 88.851562 411.054688 90.070312 412.96875 91.621094 414.609375 C 93.167969 416.257812 95.003906 417.558594 97.117188 418.515625 C 99.234375 419.472656 101.542969 419.949219 104.050781 419.949219 C 106.066406 419.949219 107.972656 419.617188 109.769531 418.957031 C 111.558594 418.277344 113.09375 417.453125 114.375 416.476562 Z M 114.375 416.476562 "/><path style=" stroke:none;fill-rule:nonzero;fill:#ff6f00;fill-opacity:1;" d="M 180.699219 401.898438 C 180.699219 405.773438 179.957031 409.417969 178.484375 412.828125 C 177.011719 416.238281 174.992188 419.207031 172.4375 421.734375 C 169.875 424.261719 166.878906 426.261719 163.4375 427.730469 C 159.996094 429.207031 156.332031 429.9375 152.445312 429.9375 C 148.554688 429.9375 144.90625 429.207031 141.488281 427.730469 C 138.066406 426.257812 135.09375 424.261719 132.558594 421.734375 C 130.023438 419.207031 128.035156 416.238281 126.582031 412.828125 C 125.132812 409.417969 124.410156 405.773438 124.410156 401.898438 C 124.410156 397.972656 125.132812 394.300781 126.582031 390.890625 C 128.035156 387.484375 130.023438 384.515625 132.558594 381.984375 C 135.09375 379.457031 138.066406 377.457031 141.488281 375.988281 C 144.90625 374.515625 148.554688 373.78125 152.445312 373.78125 C 156.328125 373.78125 159.992188 374.515625 163.4375 375.988281 C 166.878906 377.460938 169.882812 379.464844 172.4375 381.984375 C 174.992188 384.515625 177.011719 387.484375 178.484375 390.890625 C 179.964844 394.300781 180.699219 397.972656 180.699219 401.898438 Z M 169.855469 401.898438 C 169.855469 399.398438 169.414062 397.0625 168.527344 394.90625 C 167.640625 392.746094 166.425781 390.871094 164.875 389.273438 C 163.324219 387.679688 161.492188 386.410156 159.375 385.480469 C 157.261719 384.550781 154.949219 384.085938 152.445312 384.085938 C 149.984375 384.085938 147.695312 384.550781 145.582031 385.480469 C 143.464844 386.417969 141.632812 387.679688 140.085938 389.273438 C 138.535156 390.867188 137.328125 392.746094 136.46875 394.90625 C 135.609375 397.0625 135.179688 399.398438 135.179688 401.898438 C 135.179688 404.351562 135.609375 406.660156 136.46875 408.820312 C 137.328125 410.980469 138.535156 412.859375 140.085938 414.453125 C 141.632812 416.046875 143.464844 417.3125 145.582031 418.242188 C 147.695312 419.179688 149.980469 419.640625 152.445312 419.640625 C 154.949219 419.640625 157.261719 419.171875 159.375 418.242188 C 161.492188 417.3125 163.324219 416.046875 164.875 414.453125 C 166.425781 412.859375 167.640625 410.984375 168.527344 408.820312 C 169.410156 406.660156 169.855469 404.351562 169.855469 401.898438 Z M 169.855469 401.898438 "/><path style=" stroke:none;fill-rule:nonzero;fill:#ff6f00;fill-opacity:1;" d="M 190.066406 427.738281 L 190.066406 376.058594 C 190.066406 375.082031 190.535156 374.585938 191.46875 374.585938 L 226.808594 374.585938 C 227.792969 374.585938 228.28125 375.074219 228.28125 376.058594 L 228.28125 383.199219 C 228.28125 384.183594 227.792969 384.671875 226.808594 384.671875 L 200.835938 384.671875 L 200.835938 399.101562 L 220.683594 399.101562 C 221.621094 399.101562 222.085938 399.59375 222.085938 400.578125 L 222.085938 407.347656 C 222.085938 408.332031 221.621094 408.820312 220.683594 408.820312 L 200.835938 408.820312 L 200.835938 427.738281 C 200.835938 428.722656 200.347656 429.210938 199.363281 429.210938 L 191.46875 429.210938 C 190.535156 429.210938 190.066406 428.722656 190.066406 427.738281 Z M 190.066406 427.738281 "/><path style=" stroke:none;fill-rule:nonzero;fill:#ff6f00;fill-opacity:1;" d="M 236.328125 427.738281 L 236.328125 376.058594 C 236.328125 375.082031 236.796875 374.585938 237.730469 374.585938 L 273.070312 374.585938 C 274.054688 374.585938 274.542969 375.074219 274.542969 376.058594 L 274.542969 383.199219 C 274.542969 384.183594 274.054688 384.671875 273.070312 384.671875 L 247.101562 384.671875 L 247.101562 399.101562 L 266.945312 399.101562 C 267.882812 399.101562 268.351562 399.59375 268.351562 400.578125 L 268.351562 407.347656 C 268.351562 408.332031 267.882812 408.820312 266.945312 408.820312 L 247.101562 408.820312 L 247.101562 427.738281 C 247.101562 428.722656 246.609375 429.210938 245.625 429.210938 L 237.726562 429.210938 C 236.789062 429.210938 236.328125 428.722656 236.328125 427.738281 Z M 236.328125 427.738281 "/><path style=" stroke:none;fill-rule:nonzero;fill:#ff6f00;fill-opacity:1;" d="M 282.585938 427.738281 L 282.585938 376.058594 C 282.585938 375.082031 283.054688 374.585938 283.988281 374.585938 L 320.066406 374.585938 C 321.050781 374.585938 321.539062 375.074219 321.539062 376.058594 L 321.539062 383.199219 C 321.539062 384.183594 321.050781 384.671875 320.066406 384.671875 L 293.355469 384.671875 L 293.355469 395.785156 L 313.71875 395.785156 C 314.800781 395.785156 315.339844 396.277344 315.339844 397.261719 L 315.339844 404.253906 C 315.339844 405.238281 314.796875 405.726562 313.71875 405.726562 L 293.355469 405.726562 L 293.355469 419.199219 L 320.730469 419.199219 C 321.761719 419.199219 322.277344 419.691406 322.277344 420.671875 L 322.277344 427.742188 C 322.277344 428.726562 321.761719 429.214844 320.730469 429.214844 L 283.988281 429.214844 C 283.054688 429.210938 282.585938 428.722656 282.585938 427.738281 Z M 282.585938 427.738281 "/><path style=" stroke:none;fill-rule:nonzero;fill:#ff6f00;fill-opacity:1;" d="M 329.945312 427.738281 L 329.945312 376.058594 C 329.945312 375.082031 330.414062 374.585938 331.347656 374.585938 L 367.425781 374.585938 C 368.410156 374.585938 368.898438 375.074219 368.898438 376.058594 L 368.898438 383.199219 C 368.898438 384.183594 368.410156 384.671875 367.425781 384.671875 L 340.71875 384.671875 L 340.71875 395.785156 L 361.082031 395.785156 C 362.164062 395.785156 362.703125 396.277344 362.703125 397.261719 L 362.703125 404.253906 C 362.703125 405.238281 362.15625 405.726562 361.082031 405.726562 L 340.71875 405.726562 L 340.71875 419.199219 L 368.089844 419.199219 C 369.121094 419.199219 369.640625 419.691406 369.640625 420.671875 L 369.640625 427.742188 C 369.640625 428.726562 369.121094 429.214844 368.089844 429.214844 L 331.347656 429.214844 C 330.414062 429.210938 329.945312 428.722656 329.945312 427.738281 Z M 329.945312 427.738281 "/></g></svg>